<svg width="1088" height="688" viewBox="0 0 1088 688" fill="none" xmlns="http://www.w3.org/2000/svg">
<path d="M191 108H326L426.5 341L326 581H191L299.5 341L191 108Z" fill="url(#paint0_radial_1_162)" fill-opacity="0.5"/>
<path d="M191 108H326L426.5 341L326 581H191L299.5 341L191 108Z" fill="url(#paint1_radial_1_162)" fill-opacity="0.5"/>
<path d="M426 108H561L661.5 341L561 581H426L534.5 341L426 108Z" fill="url(#paint2_radial_1_162)" fill-opacity="0.5"/>
<path d="M661 108H796L896.5 341L796 581H661L769.5 341L661 108Z" fill="url(#paint3_radial_1_162)" fill-opacity="0.5"/>
<defs>
<radialGradient id="paint0_radial_1_162" cx="0" cy="0" r="1" gradientUnits="userSpaceOnUse" gradientTransform="translate(390.449 247) rotate(122.267) scale(642.764 1047.4)">
<stop stop-color="#AD91FF"/>
<stop offset="1" stop-color="white" stop-opacity="0"/>
</radialGradient>
<radialGradient id="paint1_radial_1_162" cx="0" cy="0" r="1" gradientUnits="userSpaceOnUse" gradientTransform="translate(390.449 247) rotate(122.267) scale(642.764 1047.4)">
<stop stop-color="#AD91FF"/>
<stop offset="1" stop-color="white" stop-opacity="0"/>
</radialGradient>
<radialGradient id="paint2_radial_1_162" cx="0" cy="0" r="1" gradientUnits="userSpaceOnUse" gradientTransform="translate(625.449 247) rotate(122.267) scale(642.764 1047.4)">
<stop stop-color="#AD91FF"/>
<stop offset="1" stop-color="white" stop-opacity="0"/>
</radialGradient>
<radialGradient id="paint3_radial_1_162" cx="0" cy="0" r="1" gradientUnits="userSpaceOnUse" gradientTransform="translate(860.449 247) rotate(122.267) scale(642.764 1047.4)">
<stop stop-color="#AD91FF"/>
<stop offset="1" stop-color="white" stop-opacity="0"/>
</radialGradient>
</defs>
</svg>
