<svg width="1088" height="915" viewBox="0 0 1088 915" fill="none" xmlns="http://www.w3.org/2000/svg">
<g clip-path="url(#clip0_1_197)">
<rect y="113" width="1088" height="688" rx="30" fill="url(#paint0_radial_1_197)"/>
<rect y="113" width="1088" height="688" fill="#C4C4C4" fill-opacity="0.3"/>
<path d="M109.337 386.846C89.0019 386.846 72 403.854 72 424.184V490.823C72 511.146 89.0083 528.154 109.337 528.154H201.669C221.992 528.154 239 511.146 239 490.817V424.184C239 403.861 221.992 386.846 201.663 386.846H109.337ZM109.337 399.692H201.669C214.74 399.692 226.154 411.106 226.154 424.184V431.808H187.615C184.051 431.808 181.192 428.949 181.192 425.385C181.192 421.82 184.051 418.962 187.615 418.962C189.319 418.962 190.953 418.285 192.157 417.08C193.362 415.876 194.038 414.242 194.038 412.538C194.038 410.835 193.362 409.201 192.157 407.997C190.953 406.792 189.319 406.115 187.615 406.115C177.049 406.115 168.346 414.819 168.346 425.385C168.346 433.683 173.767 440.761 181.192 443.453V475.363C173.497 480.591 168.346 489.365 168.346 499.25C168.346 505.179 170.228 510.69 173.363 515.308H137.644C140.891 510.581 142.637 504.985 142.654 499.25C142.654 489.371 137.503 480.591 129.808 475.363V443.446C137.233 440.761 142.654 433.683 142.654 425.385C142.654 414.819 133.951 406.115 123.385 406.115H110.538C110.337 406.106 110.136 406.106 109.935 406.115C109.736 406.106 109.536 406.106 109.337 406.115C107.634 406.275 106.063 407.104 104.971 408.421C103.88 409.739 103.356 411.436 103.515 413.139C103.674 414.843 104.504 416.413 105.821 417.505C107.138 418.597 108.835 419.121 110.538 418.962H123.385C126.949 418.962 129.808 421.82 129.808 425.385C129.808 428.949 126.949 431.808 123.385 431.808H84.8462V424.177C84.8462 411.106 96.26 399.692 109.337 399.692ZM84.8462 444.654H116.962V470.346H84.8462V444.654ZM194.038 444.654H226.154V470.346H194.038V444.654ZM84.8462 483.192H113.75C122.351 483.192 129.808 490.65 129.808 499.25C129.808 507.851 122.351 515.308 113.75 515.308H109.331C96.26 515.308 84.8462 503.894 84.8462 490.817V483.192ZM197.25 483.192H226.154V490.823C226.154 503.894 214.74 515.308 201.663 515.308H197.25C188.65 515.308 181.192 507.851 181.192 499.25C181.192 490.65 188.65 483.192 197.25 483.192Z" fill="white"/>
<path d="M91.125 190.875V225H82.8984V190.875H91.125ZM101.391 190.875V197.227H72.8672V190.875H101.391ZM127.875 204.422V210.75H110.367V204.422H127.875ZM113.109 190.875V225H104.883V190.875H113.109ZM133.406 190.875V225H125.203V190.875H133.406ZM162.117 218.672V225H143.93V218.672H162.117ZM146.859 190.875V225H138.633V190.875H146.859ZM159.773 204.422V210.539H143.93V204.422H159.773ZM162.188 190.875V197.227H143.93V190.875H162.188ZM191.367 210.492H182.578L182.531 205.102H189.656C190.938 205.102 191.961 204.961 192.727 204.68C193.492 204.383 194.047 203.953 194.391 203.391C194.75 202.828 194.93 202.125 194.93 201.281C194.93 200.312 194.75 199.531 194.391 198.938C194.031 198.344 193.461 197.914 192.68 197.648C191.914 197.367 190.922 197.227 189.703 197.227H185.672V225H177.445V190.875H189.703C191.812 190.875 193.695 191.07 195.352 191.461C197.008 191.836 198.414 192.414 199.57 193.195C200.742 193.977 201.633 194.961 202.242 196.148C202.852 197.32 203.156 198.703 203.156 200.297C203.156 201.688 202.859 202.992 202.266 204.211C201.672 205.43 200.68 206.422 199.289 207.188C197.914 207.938 196.031 208.328 193.641 208.359L191.367 210.492ZM191.039 225H180.586L183.398 218.672H191.039C192.164 218.672 193.062 218.5 193.734 218.156C194.422 217.797 194.914 217.328 195.211 216.75C195.523 216.156 195.68 215.5 195.68 214.781C195.68 213.906 195.531 213.148 195.234 212.508C194.953 211.867 194.5 211.375 193.875 211.031C193.25 210.672 192.414 210.492 191.367 210.492H184.453L184.5 205.102H192.773L194.695 207.258C196.977 207.164 198.781 207.484 200.109 208.219C201.453 208.953 202.414 209.922 202.992 211.125C203.57 212.328 203.859 213.586 203.859 214.898C203.859 217.133 203.375 219 202.406 220.5C201.453 222 200.023 223.125 198.117 223.875C196.211 224.625 193.852 225 191.039 225ZM222.891 198.047L214.57 225H205.734L218.273 190.875H223.875L222.891 198.047ZM229.781 225L221.438 198.047L220.359 190.875H226.031L238.641 225H229.781ZM229.453 212.273V218.625H211.945V212.273H229.453ZM269.648 190.875V225H261.445L249.375 203.766V225H241.148V190.875H249.375L261.445 212.109V190.875H269.648ZM283.078 190.875V225H274.852V190.875H283.078ZM303.445 190.875L290.227 208.172L282.492 216.633L280.992 209.086L285.938 201.586L293.297 190.875H303.445ZM293.719 225L284.906 209.625L291.305 204.914L303.445 225H293.719ZM346.383 207.258V208.641C346.383 211.25 346.016 213.594 345.281 215.672C344.562 217.734 343.539 219.5 342.211 220.969C340.883 222.422 339.312 223.539 337.5 224.32C335.688 225.086 333.688 225.469 331.5 225.469C329.297 225.469 327.281 225.086 325.453 224.32C323.641 223.539 322.062 222.422 320.719 220.969C319.391 219.5 318.359 217.734 317.625 215.672C316.906 213.594 316.547 211.25 316.547 208.641V207.258C316.547 204.648 316.906 202.305 317.625 200.227C318.359 198.148 319.383 196.383 320.695 194.93C322.023 193.461 323.594 192.344 325.406 191.578C327.234 190.797 329.25 190.406 331.453 190.406C333.641 190.406 335.641 190.797 337.453 191.578C339.281 192.344 340.859 193.461 342.188 194.93C343.516 196.383 344.547 198.148 345.281 200.227C346.016 202.305 346.383 204.648 346.383 207.258ZM338.039 208.641V207.211C338.039 205.523 337.891 204.039 337.594 202.758C337.312 201.461 336.891 200.375 336.328 199.5C335.766 198.625 335.07 197.969 334.242 197.531C333.43 197.078 332.5 196.852 331.453 196.852C330.359 196.852 329.406 197.078 328.594 197.531C327.781 197.969 327.102 198.625 326.555 199.5C326.008 200.375 325.594 201.461 325.312 202.758C325.047 204.039 324.914 205.523 324.914 207.211V208.641C324.914 210.312 325.047 211.797 325.312 213.094C325.594 214.375 326.008 215.461 326.555 216.352C327.117 217.242 327.805 217.914 328.617 218.367C329.445 218.82 330.406 219.047 331.5 219.047C332.547 219.047 333.477 218.82 334.289 218.367C335.102 217.914 335.781 217.242 336.328 216.352C336.891 215.461 337.312 214.375 337.594 213.094C337.891 211.797 338.039 210.312 338.039 208.641ZM358.875 190.875V225H350.648V190.875H358.875ZM372.141 205.078V211.406H356.531V205.078H372.141ZM373.477 190.875V197.227H356.531V190.875H373.477ZM416.766 206.766V220.781C416.188 221.422 415.297 222.109 414.094 222.844C412.906 223.562 411.406 224.18 409.594 224.695C407.781 225.211 405.648 225.469 403.195 225.469C400.93 225.469 398.875 225.109 397.031 224.391C395.188 223.656 393.602 222.586 392.273 221.18C390.961 219.758 389.945 218.023 389.227 215.977C388.523 213.914 388.172 211.555 388.172 208.898V207C388.172 204.344 388.531 201.984 389.25 199.922C389.969 197.859 390.977 196.125 392.273 194.719C393.586 193.297 395.125 192.219 396.891 191.484C398.672 190.75 400.625 190.383 402.75 190.383C405.891 190.383 408.445 190.883 410.414 191.883C412.383 192.867 413.875 194.234 414.891 195.984C415.906 197.719 416.523 199.727 416.742 202.008H408.844C408.688 200.883 408.391 199.93 407.953 199.148C407.531 198.352 406.922 197.75 406.125 197.344C405.328 196.922 404.297 196.711 403.031 196.711C402.047 196.711 401.148 196.922 400.336 197.344C399.539 197.766 398.859 198.406 398.297 199.266C397.734 200.109 397.297 201.172 396.984 202.453C396.688 203.734 396.539 205.234 396.539 206.953V208.898C396.539 210.602 396.68 212.094 396.961 213.375C397.258 214.656 397.695 215.727 398.273 216.586C398.867 217.43 399.617 218.07 400.523 218.508C401.445 218.93 402.531 219.141 403.781 219.141C404.656 219.141 405.406 219.07 406.031 218.93C406.656 218.773 407.172 218.586 407.578 218.367C408 218.133 408.32 217.914 408.539 217.711V212.414H402.82V206.766H416.766ZM421.57 190.875H435C437.625 190.875 439.906 191.266 441.844 192.047C443.781 192.828 445.273 193.984 446.32 195.516C447.383 197.047 447.914 198.938 447.914 201.188C447.914 203.141 447.609 204.773 447 206.086C446.391 207.398 445.539 208.484 444.445 209.344C443.367 210.188 442.109 210.883 440.672 211.43L437.977 212.953H426.703L426.656 206.602H435C436.047 206.602 436.914 206.414 437.602 206.039C438.289 205.664 438.805 205.133 439.148 204.445C439.508 203.742 439.688 202.906 439.688 201.938C439.688 200.953 439.508 200.109 439.148 199.406C438.789 198.703 438.258 198.164 437.555 197.789C436.867 197.414 436.016 197.227 435 197.227H429.797V225H421.57V190.875ZM440.25 225L432.703 209.906L441.422 209.859L449.062 224.648V225H440.25ZM476.367 218.672V225H458.18V218.672H476.367ZM461.109 190.875V225H452.883V190.875H461.109ZM474.023 204.422V210.539H458.18V204.422H474.023ZM476.438 190.875V197.227H458.18V190.875H476.438ZM503.227 218.672V225H485.039V218.672H503.227ZM487.969 190.875V225H479.742V190.875H487.969ZM500.883 204.422V210.539H485.039V204.422H500.883ZM503.297 190.875V197.227H485.039V190.875H503.297ZM517.688 225H510.117L510.164 218.672H517.688C519.25 218.672 520.57 218.297 521.648 217.547C522.742 216.797 523.57 215.68 524.133 214.195C524.711 212.695 525 210.852 525 208.664V207.188C525 205.547 524.836 204.109 524.508 202.875C524.195 201.625 523.727 200.586 523.102 199.758C522.477 198.914 521.695 198.281 520.758 197.859C519.836 197.438 518.773 197.227 517.57 197.227H509.977V190.875H517.57C519.883 190.875 522 191.273 523.922 192.07C525.859 192.852 527.531 193.977 528.938 195.445C530.359 196.898 531.453 198.625 532.219 200.625C533 202.609 533.391 204.812 533.391 207.234V208.664C533.391 211.07 533 213.273 532.219 215.273C531.453 217.273 530.367 219 528.961 220.453C527.555 221.906 525.891 223.031 523.969 223.828C522.062 224.609 519.969 225 517.688 225ZM514.828 190.875V225H506.602V190.875H514.828Z" fill="white"/>
<path d="M96.5312 591.375V637H88.25V601.031L77.2812 604.656V597.969L95.5938 591.375H96.5312ZM142.656 630.5V637H111.844V631.438L126.625 615.469C128.167 613.719 129.385 612.198 130.281 610.906C131.177 609.615 131.812 608.448 132.188 607.406C132.583 606.344 132.781 605.333 132.781 604.375C132.781 602.979 132.531 601.76 132.031 600.719C131.531 599.656 130.802 598.833 129.844 598.25C128.906 597.667 127.75 597.375 126.375 597.375C124.854 597.375 123.552 597.729 122.469 598.438C121.406 599.125 120.594 600.083 120.031 601.312C119.49 602.542 119.219 603.948 119.219 605.531H110.938C110.938 602.844 111.562 600.396 112.812 598.188C114.062 595.958 115.854 594.177 118.188 592.844C120.521 591.51 123.292 590.844 126.5 590.844C129.625 590.844 132.271 591.365 134.438 592.406C136.604 593.427 138.25 594.885 139.375 596.781C140.5 598.677 141.062 600.938 141.062 603.562C141.062 605.021 140.823 606.458 140.344 607.875C139.865 609.292 139.188 610.698 138.312 612.094C137.458 613.469 136.438 614.865 135.25 616.281C134.062 617.698 132.74 619.146 131.281 620.625L122.406 630.5H142.656ZM157.438 610.594H162.094C163.74 610.594 165.094 610.312 166.156 609.75C167.24 609.167 168.042 608.375 168.562 607.375C169.104 606.354 169.375 605.177 169.375 603.844C169.375 602.531 169.135 601.396 168.656 600.438C168.177 599.458 167.448 598.708 166.469 598.188C165.51 597.646 164.281 597.375 162.781 597.375C161.573 597.375 160.458 597.615 159.438 598.094C158.438 598.573 157.635 599.26 157.031 600.156C156.448 601.031 156.156 602.083 156.156 603.312H147.875C147.875 600.854 148.521 598.698 149.812 596.844C151.125 594.969 152.896 593.5 155.125 592.438C157.354 591.375 159.844 590.844 162.594 590.844C165.594 590.844 168.219 591.344 170.469 592.344C172.74 593.323 174.5 594.771 175.75 596.688C177.021 598.604 177.656 600.979 177.656 603.812C177.656 605.167 177.333 606.521 176.688 607.875C176.062 609.208 175.135 610.417 173.906 611.5C172.698 612.562 171.208 613.427 169.438 614.094C167.688 614.74 165.677 615.062 163.406 615.062H157.438V610.594ZM157.438 616.969V612.562H163.406C165.969 612.562 168.188 612.865 170.062 613.469C171.958 614.052 173.521 614.885 174.75 615.969C175.979 617.031 176.885 618.271 177.469 619.688C178.073 621.104 178.375 622.625 178.375 624.25C178.375 626.375 177.979 628.271 177.188 629.938C176.396 631.583 175.281 632.979 173.844 634.125C172.427 635.271 170.76 636.146 168.844 636.75C166.927 637.333 164.854 637.625 162.625 637.625C160.688 637.625 158.802 637.365 156.969 636.844C155.156 636.302 153.521 635.5 152.062 634.438C150.604 633.354 149.448 632 148.594 630.375C147.74 628.729 147.312 626.823 147.312 624.656H155.594C155.594 625.906 155.896 627.021 156.5 628C157.125 628.979 157.979 629.75 159.062 630.312C160.167 630.854 161.406 631.125 162.781 631.125C164.302 631.125 165.604 630.854 166.688 630.312C167.792 629.75 168.635 628.958 169.219 627.938C169.802 626.896 170.094 625.656 170.094 624.219C170.094 622.51 169.771 621.125 169.125 620.062C168.479 619 167.552 618.219 166.344 617.719C165.156 617.219 163.74 616.969 162.094 616.969H157.438ZM216.562 620.406V626.906H183.781L183.438 621.906L202.719 591.5H209.312L202.188 603.594L191.844 620.406H216.562ZM211.156 591.5V637H202.875V591.5H211.156ZM245.656 616.062L239.062 614.469L241.594 591.5H266.625V598.344H248.438L247.25 608.969C247.896 608.573 248.833 608.177 250.062 607.781C251.312 607.365 252.719 607.156 254.281 607.156C256.448 607.156 258.385 607.51 260.094 608.219C261.802 608.906 263.25 609.906 264.438 611.219C265.646 612.531 266.552 614.135 267.156 616.031C267.781 617.906 268.094 620.031 268.094 622.406C268.094 624.49 267.781 626.448 267.156 628.281C266.552 630.094 265.625 631.708 264.375 633.125C263.125 634.521 261.552 635.625 259.656 636.438C257.76 637.229 255.531 637.625 252.969 637.625C251.031 637.625 249.167 637.344 247.375 636.781C245.604 636.198 244.01 635.354 242.594 634.25C241.177 633.125 240.042 631.75 239.188 630.125C238.354 628.5 237.896 626.635 237.812 624.531H245.969C246.115 625.927 246.49 627.115 247.094 628.094C247.698 629.073 248.49 629.823 249.469 630.344C250.469 630.865 251.625 631.125 252.938 631.125C254.125 631.125 255.146 630.906 256 630.469C256.875 630.01 257.594 629.375 258.156 628.562C258.719 627.75 259.135 626.792 259.406 625.688C259.677 624.583 259.812 623.375 259.812 622.062C259.812 620.792 259.656 619.635 259.344 618.594C259.031 617.531 258.552 616.615 257.906 615.844C257.26 615.073 256.448 614.479 255.469 614.062C254.51 613.646 253.385 613.438 252.094 613.438C250.365 613.438 249.031 613.698 248.094 614.219C247.177 614.74 246.365 615.354 245.656 616.062ZM297 591.125H298.125V597.781H297.594C295.073 597.781 292.854 598.167 290.938 598.938C289.042 599.708 287.458 600.792 286.188 602.188C284.938 603.562 283.99 605.198 283.344 607.094C282.698 608.969 282.375 611.021 282.375 613.25V620.625C282.375 622.354 282.552 623.875 282.906 625.188C283.281 626.479 283.792 627.573 284.438 628.469C285.104 629.344 285.875 630 286.75 630.438C287.646 630.875 288.625 631.094 289.688 631.094C290.75 631.094 291.708 630.875 292.562 630.438C293.417 630 294.146 629.385 294.75 628.594C295.375 627.781 295.844 626.833 296.156 625.75C296.49 624.667 296.656 623.479 296.656 622.188C296.656 620.917 296.5 619.74 296.188 618.656C295.875 617.573 295.417 616.625 294.812 615.812C294.208 614.979 293.458 614.344 292.562 613.906C291.688 613.448 290.688 613.219 289.562 613.219C288.104 613.219 286.802 613.562 285.656 614.25C284.51 614.917 283.604 615.792 282.938 616.875C282.271 617.958 281.906 619.104 281.844 620.312L279.062 618.938C279.167 617.167 279.542 615.542 280.188 614.062C280.854 612.583 281.74 611.292 282.844 610.188C283.969 609.083 285.292 608.229 286.812 607.625C288.354 607.021 290.062 606.719 291.938 606.719C294.104 606.719 296 607.135 297.625 607.969C299.25 608.781 300.594 609.896 301.656 611.312C302.74 612.729 303.552 614.365 304.094 616.219C304.635 618.052 304.906 619.99 304.906 622.031C304.906 624.219 304.552 626.26 303.844 628.156C303.156 630.052 302.156 631.708 300.844 633.125C299.531 634.542 297.948 635.646 296.094 636.438C294.24 637.229 292.156 637.625 289.844 637.625C287.406 637.625 285.219 637.167 283.281 636.25C281.365 635.333 279.719 634.062 278.344 632.438C276.969 630.812 275.917 628.917 275.188 626.75C274.458 624.583 274.094 622.24 274.094 619.719V616.406C274.094 612.844 274.583 609.531 275.562 606.469C276.542 603.406 277.99 600.729 279.906 598.438C281.844 596.125 284.24 594.333 287.094 593.062C289.948 591.771 293.25 591.125 297 591.125ZM341.156 591.5V596L323.281 637H314.562L332.438 598H309.312V591.5H341.156ZM377.344 624.562C377.344 627.396 376.677 629.792 375.344 631.75C374.031 633.688 372.229 635.156 369.938 636.156C367.667 637.135 365.083 637.625 362.188 637.625C359.312 637.625 356.719 637.135 354.406 636.156C352.115 635.156 350.292 633.688 348.938 631.75C347.604 629.792 346.938 627.396 346.938 624.562C346.938 622.667 347.312 620.948 348.062 619.406C348.833 617.865 349.896 616.542 351.25 615.438C352.604 614.312 354.208 613.458 356.062 612.875C357.917 612.271 359.938 611.969 362.125 611.969C365.042 611.969 367.646 612.5 369.938 613.562C372.25 614.604 374.062 616.073 375.375 617.969C376.688 619.844 377.344 622.042 377.344 624.562ZM369.031 624.062C369.031 622.604 368.74 621.344 368.156 620.281C367.594 619.198 366.792 618.365 365.75 617.781C364.708 617.198 363.5 616.906 362.125 616.906C360.729 616.906 359.51 617.198 358.469 617.781C357.448 618.365 356.646 619.198 356.062 620.281C355.5 621.344 355.219 622.604 355.219 624.062C355.219 625.542 355.5 626.812 356.062 627.875C356.646 628.917 357.458 629.719 358.5 630.281C359.542 630.844 360.771 631.125 362.188 631.125C363.604 631.125 364.823 630.844 365.844 630.281C366.865 629.719 367.646 628.917 368.188 627.875C368.75 626.812 369.031 625.542 369.031 624.062ZM376.344 603.5C376.344 605.792 375.74 607.833 374.531 609.625C373.323 611.396 371.646 612.781 369.5 613.781C367.375 614.781 364.938 615.281 362.188 615.281C359.438 615.281 356.979 614.781 354.812 613.781C352.667 612.781 350.979 611.396 349.75 609.625C348.542 607.833 347.938 605.792 347.938 603.5C347.938 600.792 348.552 598.5 349.781 596.625C351.01 594.729 352.688 593.292 354.812 592.312C356.958 591.333 359.396 590.844 362.125 590.844C364.896 590.844 367.354 591.333 369.5 592.312C371.646 593.292 373.323 594.729 374.531 596.625C375.74 598.5 376.344 600.792 376.344 603.5ZM368.094 603.844C368.094 602.552 367.854 601.427 367.375 600.469C366.896 599.49 366.208 598.729 365.312 598.188C364.438 597.646 363.375 597.375 362.125 597.375C360.917 597.375 359.875 597.635 359 598.156C358.125 598.677 357.448 599.427 356.969 600.406C356.49 601.365 356.25 602.51 356.25 603.844C356.25 605.156 356.49 606.302 356.969 607.281C357.448 608.26 358.125 609.031 359 609.594C359.896 610.135 360.958 610.406 362.188 610.406C363.417 610.406 364.469 610.135 365.344 609.594C366.219 609.031 366.896 608.26 367.375 607.281C367.854 606.302 368.094 605.156 368.094 603.844ZM420.906 591.375V637H412.625V601.031L401.656 604.656V597.969L419.969 591.375H420.906ZM467.031 630.5V637H436.219V631.438L451 615.469C452.542 613.719 453.76 612.198 454.656 610.906C455.552 609.615 456.188 608.448 456.562 607.406C456.958 606.344 457.156 605.333 457.156 604.375C457.156 602.979 456.906 601.76 456.406 600.719C455.906 599.656 455.177 598.833 454.219 598.25C453.281 597.667 452.125 597.375 450.75 597.375C449.229 597.375 447.927 597.729 446.844 598.438C445.781 599.125 444.969 600.083 444.406 601.312C443.865 602.542 443.594 603.948 443.594 605.531H435.312C435.312 602.844 435.938 600.396 437.188 598.188C438.438 595.958 440.229 594.177 442.562 592.844C444.896 591.51 447.667 590.844 450.875 590.844C454 590.844 456.646 591.365 458.812 592.406C460.979 593.427 462.625 594.885 463.75 596.781C464.875 598.677 465.438 600.938 465.438 603.562C465.438 605.021 465.198 606.458 464.719 607.875C464.24 609.292 463.562 610.698 462.688 612.094C461.833 613.469 460.812 614.865 459.625 616.281C458.438 617.698 457.115 619.146 455.656 620.625L446.781 630.5H467.031ZM481.812 610.594H486.469C488.115 610.594 489.469 610.312 490.531 609.75C491.615 609.167 492.417 608.375 492.938 607.375C493.479 606.354 493.75 605.177 493.75 603.844C493.75 602.531 493.51 601.396 493.031 600.438C492.552 599.458 491.823 598.708 490.844 598.188C489.885 597.646 488.656 597.375 487.156 597.375C485.948 597.375 484.833 597.615 483.812 598.094C482.812 598.573 482.01 599.26 481.406 600.156C480.823 601.031 480.531 602.083 480.531 603.312H472.25C472.25 600.854 472.896 598.698 474.188 596.844C475.5 594.969 477.271 593.5 479.5 592.438C481.729 591.375 484.219 590.844 486.969 590.844C489.969 590.844 492.594 591.344 494.844 592.344C497.115 593.323 498.875 594.771 500.125 596.688C501.396 598.604 502.031 600.979 502.031 603.812C502.031 605.167 501.708 606.521 501.062 607.875C500.438 609.208 499.51 610.417 498.281 611.5C497.073 612.562 495.583 613.427 493.812 614.094C492.062 614.74 490.052 615.062 487.781 615.062H481.812V610.594ZM481.812 616.969V612.562H487.781C490.344 612.562 492.562 612.865 494.438 613.469C496.333 614.052 497.896 614.885 499.125 615.969C500.354 617.031 501.26 618.271 501.844 619.688C502.448 621.104 502.75 622.625 502.75 624.25C502.75 626.375 502.354 628.271 501.562 629.938C500.771 631.583 499.656 632.979 498.219 634.125C496.802 635.271 495.135 636.146 493.219 636.75C491.302 637.333 489.229 637.625 487 637.625C485.062 637.625 483.177 637.365 481.344 636.844C479.531 636.302 477.896 635.5 476.438 634.438C474.979 633.354 473.823 632 472.969 630.375C472.115 628.729 471.688 626.823 471.688 624.656H479.969C479.969 625.906 480.271 627.021 480.875 628C481.5 628.979 482.354 629.75 483.438 630.312C484.542 630.854 485.781 631.125 487.156 631.125C488.677 631.125 489.979 630.854 491.062 630.312C492.167 629.75 493.01 628.958 493.594 627.938C494.177 626.896 494.469 625.656 494.469 624.219C494.469 622.51 494.146 621.125 493.5 620.062C492.854 619 491.927 618.219 490.719 617.719C489.531 617.219 488.115 616.969 486.469 616.969H481.812ZM540.938 620.406V626.906H508.156L507.812 621.906L527.094 591.5H533.688L526.562 603.594L516.219 620.406H540.938ZM535.531 591.5V637H527.25V591.5H535.531ZM570.031 616.062L563.438 614.469L565.969 591.5H591V598.344H572.812L571.625 608.969C572.271 608.573 573.208 608.177 574.438 607.781C575.688 607.365 577.094 607.156 578.656 607.156C580.823 607.156 582.76 607.51 584.469 608.219C586.177 608.906 587.625 609.906 588.812 611.219C590.021 612.531 590.927 614.135 591.531 616.031C592.156 617.906 592.469 620.031 592.469 622.406C592.469 624.49 592.156 626.448 591.531 628.281C590.927 630.094 590 631.708 588.75 633.125C587.5 634.521 585.927 635.625 584.031 636.438C582.135 637.229 579.906 637.625 577.344 637.625C575.406 637.625 573.542 637.344 571.75 636.781C569.979 636.198 568.385 635.354 566.969 634.25C565.552 633.125 564.417 631.75 563.562 630.125C562.729 628.5 562.271 626.635 562.188 624.531H570.344C570.49 625.927 570.865 627.115 571.469 628.094C572.073 629.073 572.865 629.823 573.844 630.344C574.844 630.865 576 631.125 577.312 631.125C578.5 631.125 579.521 630.906 580.375 630.469C581.25 630.01 581.969 629.375 582.531 628.562C583.094 627.75 583.51 626.792 583.781 625.688C584.052 624.583 584.188 623.375 584.188 622.062C584.188 620.792 584.031 619.635 583.719 618.594C583.406 617.531 582.927 616.615 582.281 615.844C581.635 615.073 580.823 614.479 579.844 614.062C578.885 613.646 577.76 613.438 576.469 613.438C574.74 613.438 573.406 613.698 572.469 614.219C571.552 614.74 570.74 615.354 570.031 616.062ZM621.375 591.125H622.5V597.781H621.969C619.448 597.781 617.229 598.167 615.312 598.938C613.417 599.708 611.833 600.792 610.562 602.188C609.312 603.562 608.365 605.198 607.719 607.094C607.073 608.969 606.75 611.021 606.75 613.25V620.625C606.75 622.354 606.927 623.875 607.281 625.188C607.656 626.479 608.167 627.573 608.812 628.469C609.479 629.344 610.25 630 611.125 630.438C612.021 630.875 613 631.094 614.062 631.094C615.125 631.094 616.083 630.875 616.938 630.438C617.792 630 618.521 629.385 619.125 628.594C619.75 627.781 620.219 626.833 620.531 625.75C620.865 624.667 621.031 623.479 621.031 622.188C621.031 620.917 620.875 619.74 620.562 618.656C620.25 617.573 619.792 616.625 619.188 615.812C618.583 614.979 617.833 614.344 616.938 613.906C616.062 613.448 615.062 613.219 613.938 613.219C612.479 613.219 611.177 613.562 610.031 614.25C608.885 614.917 607.979 615.792 607.312 616.875C606.646 617.958 606.281 619.104 606.219 620.312L603.438 618.938C603.542 617.167 603.917 615.542 604.562 614.062C605.229 612.583 606.115 611.292 607.219 610.188C608.344 609.083 609.667 608.229 611.188 607.625C612.729 607.021 614.438 606.719 616.312 606.719C618.479 606.719 620.375 607.135 622 607.969C623.625 608.781 624.969 609.896 626.031 611.312C627.115 612.729 627.927 614.365 628.469 616.219C629.01 618.052 629.281 619.99 629.281 622.031C629.281 624.219 628.927 626.26 628.219 628.156C627.531 630.052 626.531 631.708 625.219 633.125C623.906 634.542 622.323 635.646 620.469 636.438C618.615 637.229 616.531 637.625 614.219 637.625C611.781 637.625 609.594 637.167 607.656 636.25C605.74 635.333 604.094 634.062 602.719 632.438C601.344 630.812 600.292 628.917 599.562 626.75C598.833 624.583 598.469 622.24 598.469 619.719V616.406C598.469 612.844 598.958 609.531 599.938 606.469C600.917 603.406 602.365 600.729 604.281 598.438C606.219 596.125 608.615 594.333 611.469 593.062C614.323 591.771 617.625 591.125 621.375 591.125ZM665.531 591.5V596L647.656 637H638.938L656.812 598H633.688V591.5H665.531ZM701.719 624.562C701.719 627.396 701.052 629.792 699.719 631.75C698.406 633.688 696.604 635.156 694.312 636.156C692.042 637.135 689.458 637.625 686.562 637.625C683.688 637.625 681.094 637.135 678.781 636.156C676.49 635.156 674.667 633.688 673.312 631.75C671.979 629.792 671.312 627.396 671.312 624.562C671.312 622.667 671.688 620.948 672.438 619.406C673.208 617.865 674.271 616.542 675.625 615.438C676.979 614.312 678.583 613.458 680.438 612.875C682.292 612.271 684.312 611.969 686.5 611.969C689.417 611.969 692.021 612.5 694.312 613.562C696.625 614.604 698.438 616.073 699.75 617.969C701.062 619.844 701.719 622.042 701.719 624.562ZM693.406 624.062C693.406 622.604 693.115 621.344 692.531 620.281C691.969 619.198 691.167 618.365 690.125 617.781C689.083 617.198 687.875 616.906 686.5 616.906C685.104 616.906 683.885 617.198 682.844 617.781C681.823 618.365 681.021 619.198 680.438 620.281C679.875 621.344 679.594 622.604 679.594 624.062C679.594 625.542 679.875 626.812 680.438 627.875C681.021 628.917 681.833 629.719 682.875 630.281C683.917 630.844 685.146 631.125 686.562 631.125C687.979 631.125 689.198 630.844 690.219 630.281C691.24 629.719 692.021 628.917 692.562 627.875C693.125 626.812 693.406 625.542 693.406 624.062ZM700.719 603.5C700.719 605.792 700.115 607.833 698.906 609.625C697.698 611.396 696.021 612.781 693.875 613.781C691.75 614.781 689.312 615.281 686.562 615.281C683.812 615.281 681.354 614.781 679.188 613.781C677.042 612.781 675.354 611.396 674.125 609.625C672.917 607.833 672.312 605.792 672.312 603.5C672.312 600.792 672.927 598.5 674.156 596.625C675.385 594.729 677.062 593.292 679.188 592.312C681.333 591.333 683.771 590.844 686.5 590.844C689.271 590.844 691.729 591.333 693.875 592.312C696.021 593.292 697.698 594.729 698.906 596.625C700.115 598.5 700.719 600.792 700.719 603.5ZM692.469 603.844C692.469 602.552 692.229 601.427 691.75 600.469C691.271 599.49 690.583 598.729 689.688 598.188C688.812 597.646 687.75 597.375 686.5 597.375C685.292 597.375 684.25 597.635 683.375 598.156C682.5 598.677 681.823 599.427 681.344 600.406C680.865 601.365 680.625 602.51 680.625 603.844C680.625 605.156 680.865 606.302 681.344 607.281C681.823 608.26 682.5 609.031 683.375 609.594C684.271 610.135 685.333 610.406 686.562 610.406C687.792 610.406 688.844 610.135 689.719 609.594C690.594 609.031 691.271 608.26 691.75 607.281C692.229 606.302 692.469 605.156 692.469 603.844Z" fill="white"/>
<path d="M79.2422 699.875L86.7422 715.789L94.2891 699.875H101.367L90.0234 721.508V734H83.4844V721.508L72.1172 699.875H79.2422ZM101.672 721.578V721.086C101.672 719.227 101.938 717.516 102.469 715.953C103 714.375 103.773 713.008 104.789 711.852C105.805 710.695 107.047 709.797 108.516 709.156C109.984 708.5 111.656 708.172 113.531 708.172C115.438 708.172 117.125 708.5 118.594 709.156C120.078 709.797 121.328 710.695 122.344 711.852C123.359 713.008 124.133 714.375 124.664 715.953C125.195 717.516 125.461 719.227 125.461 721.086V721.578C125.461 723.422 125.195 725.133 124.664 726.711C124.133 728.273 123.359 729.641 122.344 730.812C121.328 731.969 120.086 732.867 118.617 733.508C117.148 734.148 115.469 734.469 113.578 734.469C111.703 734.469 110.023 734.148 108.539 733.508C107.055 732.867 105.805 731.969 104.789 730.812C103.773 729.641 103 728.273 102.469 726.711C101.938 725.133 101.672 723.422 101.672 721.578ZM107.859 721.086V721.578C107.859 722.688 107.969 723.727 108.188 724.695C108.406 725.664 108.742 726.516 109.195 727.25C109.648 727.984 110.234 728.562 110.953 728.984C111.688 729.391 112.562 729.594 113.578 729.594C114.578 729.594 115.438 729.391 116.156 728.984C116.875 728.562 117.461 727.984 117.914 727.25C118.383 726.516 118.727 725.664 118.945 724.695C119.164 723.727 119.273 722.688 119.273 721.578V721.086C119.273 719.992 119.164 718.969 118.945 718.016C118.727 717.047 118.383 716.195 117.914 715.461C117.461 714.711 116.867 714.125 116.133 713.703C115.414 713.266 114.547 713.047 113.531 713.047C112.531 713.047 111.672 713.266 110.953 713.703C110.234 714.125 109.648 714.711 109.195 715.461C108.742 716.195 108.406 717.047 108.188 718.016C107.969 718.969 107.859 719.992 107.859 721.086ZM145.055 727.977V708.641H151.289V734H145.43L145.055 727.977ZM145.852 722.727L147.773 722.68C147.773 724.383 147.586 725.953 147.211 727.391C146.836 728.828 146.25 730.078 145.453 731.141C144.672 732.188 143.68 733.008 142.477 733.602C141.273 734.18 139.852 734.469 138.211 734.469C136.961 734.469 135.82 734.297 134.789 733.953C133.758 733.594 132.867 733.039 132.117 732.289C131.383 731.523 130.812 730.547 130.406 729.359C130 728.156 129.797 726.711 129.797 725.023V708.641H135.984V725.07C135.984 725.914 136.078 726.617 136.266 727.18C136.469 727.742 136.742 728.203 137.086 728.562C137.445 728.906 137.859 729.156 138.328 729.312C138.812 729.453 139.328 729.523 139.875 729.523C141.375 729.523 142.555 729.227 143.414 728.633C144.289 728.023 144.914 727.211 145.289 726.195C145.664 725.164 145.852 724.008 145.852 722.727ZM162.961 713.82V734H156.773V708.641H162.633L162.961 713.82ZM170.672 708.477L170.578 714.242C170.234 714.18 169.844 714.133 169.406 714.102C168.984 714.07 168.586 714.055 168.211 714.055C167.258 714.055 166.422 714.188 165.703 714.453C164.984 714.703 164.383 715.07 163.898 715.555C163.43 716.039 163.07 716.633 162.82 717.336C162.57 718.023 162.43 718.805 162.398 719.68L161.062 719.516C161.062 717.906 161.227 716.414 161.555 715.039C161.883 713.664 162.359 712.461 162.984 711.43C163.609 710.398 164.391 709.602 165.328 709.039C166.281 708.461 167.375 708.172 168.609 708.172C168.953 708.172 169.32 708.203 169.711 708.266C170.117 708.312 170.438 708.383 170.672 708.477ZM192.094 714.055V734H185.906V708.641H191.719L192.094 714.055ZM191.109 720.406H189.281C189.297 718.562 189.547 716.891 190.031 715.391C190.516 713.891 191.195 712.602 192.07 711.523C192.961 710.445 194.016 709.617 195.234 709.039C196.453 708.461 197.812 708.172 199.312 708.172C200.531 708.172 201.633 708.344 202.617 708.688C203.602 709.031 204.445 709.578 205.148 710.328C205.867 711.078 206.414 712.062 206.789 713.281C207.18 714.484 207.375 715.969 207.375 717.734V734H201.141V717.688C201.141 716.531 200.969 715.617 200.625 714.945C200.297 714.273 199.812 713.797 199.172 713.516C198.547 713.234 197.773 713.094 196.852 713.094C195.898 713.094 195.062 713.289 194.344 713.68C193.641 714.055 193.047 714.578 192.562 715.25C192.094 715.922 191.734 716.695 191.484 717.57C191.234 718.445 191.109 719.391 191.109 720.406ZM226.805 728.609V716.914C226.805 716.055 226.656 715.312 226.359 714.688C226.062 714.062 225.609 713.578 225 713.234C224.391 712.891 223.617 712.719 222.68 712.719C221.852 712.719 221.125 712.859 220.5 713.141C219.891 713.422 219.422 713.82 219.094 714.336C218.766 714.836 218.602 715.414 218.602 716.07H212.391C212.391 715.023 212.641 714.031 213.141 713.094C213.641 712.141 214.352 711.297 215.273 710.562C216.211 709.812 217.328 709.227 218.625 708.805C219.938 708.383 221.406 708.172 223.031 708.172C224.953 708.172 226.664 708.5 228.164 709.156C229.68 709.797 230.867 710.766 231.727 712.062C232.602 713.359 233.039 714.992 233.039 716.961V728.023C233.039 729.289 233.117 730.375 233.273 731.281C233.445 732.172 233.695 732.945 234.023 733.602V734H227.719C227.422 733.359 227.195 732.547 227.039 731.562C226.883 730.562 226.805 729.578 226.805 728.609ZM227.672 718.555L227.719 722.234H223.805C222.836 722.234 221.984 722.336 221.25 722.539C220.516 722.727 219.914 723.008 219.445 723.383C218.977 723.742 218.625 724.18 218.391 724.695C218.156 725.195 218.039 725.766 218.039 726.406C218.039 727.031 218.18 727.594 218.461 728.094C218.758 728.594 219.18 728.992 219.727 729.289C220.289 729.57 220.945 729.711 221.695 729.711C222.789 729.711 223.742 729.492 224.555 729.055C225.367 728.602 226 728.055 226.453 727.414C226.906 726.773 227.148 726.164 227.18 725.586L228.961 728.258C228.742 728.898 228.414 729.578 227.977 730.297C227.539 731.016 226.977 731.688 226.289 732.312C225.602 732.938 224.773 733.453 223.805 733.859C222.836 734.266 221.711 734.469 220.43 734.469C218.789 734.469 217.32 734.141 216.023 733.484C214.727 732.828 213.703 731.93 212.953 730.789C212.203 729.648 211.828 728.352 211.828 726.898C211.828 725.555 212.078 724.367 212.578 723.336C213.078 722.305 213.82 721.438 214.805 720.734C215.789 720.016 217.008 719.477 218.461 719.117C219.93 718.742 221.609 718.555 223.5 718.555H227.672ZM244.781 713.844V734H238.594V708.641H244.43L244.781 713.844ZM243.867 720.406H241.969C241.969 718.641 242.18 717.016 242.602 715.531C243.039 714.047 243.68 712.758 244.523 711.664C245.367 710.555 246.406 709.695 247.641 709.086C248.891 708.477 250.336 708.172 251.977 708.172C253.117 708.172 254.164 708.344 255.117 708.688C256.07 709.016 256.891 709.539 257.578 710.258C258.281 710.961 258.82 711.883 259.195 713.023C259.57 714.148 259.758 715.5 259.758 717.078V734H253.57V717.711C253.57 716.523 253.398 715.594 253.055 714.922C252.727 714.25 252.25 713.781 251.625 713.516C251 713.234 250.25 713.094 249.375 713.094C248.406 713.094 247.57 713.289 246.867 713.68C246.18 714.055 245.609 714.578 245.156 715.25C244.719 715.922 244.391 716.695 244.172 717.57C243.969 718.445 243.867 719.391 243.867 720.406ZM259.289 719.258L256.734 719.727C256.75 718.133 256.969 716.641 257.391 715.25C257.812 713.844 258.43 712.617 259.242 711.57C260.07 710.508 261.094 709.68 262.312 709.086C263.547 708.477 264.969 708.172 266.578 708.172C267.828 708.172 268.953 708.352 269.953 708.711C270.969 709.055 271.836 709.609 272.555 710.375C273.273 711.125 273.82 712.102 274.195 713.305C274.586 714.508 274.781 715.977 274.781 717.711V734H268.547V717.688C268.547 716.453 268.375 715.508 268.031 714.852C267.703 714.195 267.227 713.742 266.602 713.492C265.977 713.227 265.242 713.094 264.398 713.094C263.539 713.094 262.789 713.258 262.148 713.586C261.523 713.898 260.992 714.336 260.555 714.898C260.133 715.461 259.812 716.117 259.594 716.867C259.391 717.602 259.289 718.398 259.289 719.258ZM291.727 734.469C289.805 734.469 288.078 734.156 286.547 733.531C285.016 732.906 283.711 732.039 282.633 730.93C281.57 729.805 280.75 728.5 280.172 727.016C279.609 725.516 279.328 723.906 279.328 722.188V721.25C279.328 719.297 279.609 717.523 280.172 715.93C280.734 714.32 281.531 712.938 282.562 711.781C283.594 710.625 284.828 709.734 286.266 709.109C287.703 708.484 289.289 708.172 291.023 708.172C292.82 708.172 294.406 708.477 295.781 709.086C297.156 709.68 298.305 710.523 299.227 711.617C300.148 712.711 300.844 714.023 301.312 715.555C301.781 717.07 302.016 718.75 302.016 720.594V723.195H282.141V718.93H295.922V718.461C295.891 717.477 295.703 716.578 295.359 715.766C295.016 714.938 294.484 714.281 293.766 713.797C293.047 713.297 292.117 713.047 290.977 713.047C290.055 713.047 289.25 713.25 288.562 713.656C287.891 714.047 287.328 714.609 286.875 715.344C286.438 716.062 286.109 716.922 285.891 717.922C285.672 718.922 285.562 720.031 285.562 721.25V722.188C285.562 723.25 285.703 724.234 285.984 725.141C286.281 726.047 286.711 726.836 287.273 727.508C287.852 728.164 288.539 728.68 289.336 729.055C290.148 729.414 291.07 729.594 292.102 729.594C293.398 729.594 294.57 729.344 295.617 728.844C296.68 728.328 297.602 727.57 298.383 726.57L301.5 729.805C300.969 730.586 300.25 731.336 299.344 732.055C298.453 732.773 297.375 733.359 296.109 733.812C294.844 734.25 293.383 734.469 291.727 734.469Z" fill="white"/>
<path d="M995.151 702.067C991.858 700.868 988.378 700.266 984.873 700.29C973.54 700.29 965.536 705.999 965.479 714.194C965.408 720.215 971.167 723.608 975.523 725.62C979.993 727.688 981.487 728.991 981.473 730.84C981.445 733.652 977.903 734.927 974.61 734.927C970.083 734.927 967.611 734.297 963.807 732.717L962.398 732.058L960.79 741.493C963.545 742.641 968.511 743.625 973.639 743.71C985.688 743.71 993.565 738.037 993.657 729.317C993.756 724.507 990.639 720.874 984.08 717.87C980.092 715.922 977.62 714.619 977.62 712.643C977.62 710.893 979.738 709.023 984.165 709.023C987.111 708.952 990.039 709.505 992.757 710.645L993.82 711.12L995.427 702.004L995.151 702.067V702.067ZM1024.56 701.055H1015.71C1012.95 701.055 1010.88 701.813 1009.67 704.547L992.644 743.122H1004.69L1007.1 736.797L1021.81 736.811C1022.15 738.292 1023.22 743.122 1023.22 743.122H1033.84L1024.56 701.055V701.055ZM949.18 700.7H960.662L953.48 742.79H942.012L949.18 700.686V700.7V700.7ZM920.032 723.898L921.222 729.742L932.442 701.055H944.605L926.535 743.066H914.401L904.485 707.493C904.324 706.907 903.947 706.403 903.429 706.084C899.855 704.237 896.068 702.836 892.152 701.912L892.308 701.026H910.789C913.296 701.125 915.315 701.912 915.988 704.589L920.025 723.92V723.898H920.032ZM1010.39 728.191L1014.97 716.418C1014.91 716.546 1015.91 713.989 1016.49 712.409L1017.28 716.043L1019.94 728.184H1010.39V728.191H1010.39Z" fill="white"/>
</g>
<path d="M102 899.208L986.208 15" stroke="white" stroke-opacity="0.6" stroke-width="30" stroke-linecap="round"/>
<defs>
<radialGradient id="paint0_radial_1_197" cx="0" cy="0" r="1" gradientUnits="userSpaceOnUse" gradientTransform="translate(746 365) rotate(150.08) scale(771.872 1220.63)">
<stop stop-color="#AD91FF"/>
<stop offset="1" stop-color="#AD91FF" stop-opacity="0"/>
</radialGradient>
<clipPath id="clip0_1_197">
<rect y="113" width="1088" height="688" rx="30" fill="white"/>
</clipPath>
</defs>
</svg>
