<svg width="610" height="610" viewBox="0 0 610 610" fill="none" xmlns="http://www.w3.org/2000/svg">
<path d="M305.175 465.021C300.164 465.021 295.504 463.717 291.152 461.461L246.771 435.995C240.104 432.449 243.445 431.16 245.452 430.515C254.449 427.614 256.119 426.97 265.467 421.797C266.463 421.153 267.811 421.475 268.808 422.12L302.845 441.798C304.164 442.442 305.849 442.442 306.845 441.798L439.99 367.306C441.309 366.661 441.983 365.371 441.983 363.76V215.098C441.983 213.486 441.323 212.197 439.99 211.552L306.845 137.397C305.512 136.753 303.841 136.753 302.845 137.397L169.7 211.552C168.367 212.197 167.693 213.809 167.693 215.098V363.76C167.693 365.049 168.367 366.661 169.7 367.306L206.067 387.628C225.759 397.299 238.097 386.017 238.097 374.734V228.007C238.097 226.073 239.767 224.139 242.111 224.139H259.123C261.13 224.139 263.123 225.75 263.123 228.007V374.72C263.123 400.2 248.778 415.028 223.752 415.028C216.074 415.028 210.067 415.028 193.056 406.969L158.022 387.628C153.801 385.307 150.275 381.901 147.81 377.761C145.345 373.622 144.03 368.9 144 364.082V215.42C144 205.75 149.333 196.724 158.022 191.889L291.167 117.382C295.502 115.159 300.303 114 305.175 114C310.046 114 314.848 115.159 319.182 117.382L452.342 191.874C461.016 196.71 466.349 205.735 466.349 215.406V364.067C466.349 373.738 461.016 382.764 452.342 387.614L319.182 462.091C314.761 464.007 309.993 464.995 305.175 464.992V465.021ZM346.216 362.793C287.826 362.793 275.812 337.005 275.812 315.07C275.812 313.136 277.482 311.202 279.812 311.202H297.16C299.167 311.202 300.823 312.492 300.823 314.426C303.504 331.51 311.182 339.891 346.553 339.891C374.582 339.891 386.597 333.767 386.597 319.261C386.597 310.88 383.256 304.755 339.549 300.565C303.167 297.004 280.486 289.282 280.486 261.223C280.486 235.098 303.167 219.611 341.219 219.611C383.93 219.611 404.956 233.809 407.623 264.769C407.593 265.817 407.24 266.831 406.612 267.67C405.953 268.315 404.956 268.96 403.945 268.96H386.597C385.754 268.939 384.941 268.645 384.28 268.122C383.619 267.599 383.147 266.874 382.934 266.059C378.919 248.329 368.575 242.512 341.219 242.512C310.508 242.512 306.845 252.828 306.845 260.564C306.845 269.927 311.182 272.828 352.56 277.986C393.601 283.143 412.956 290.557 412.956 318.279C412.619 346.675 388.604 362.793 346.216 362.793V362.793Z" fill="#E5E5E5" fill-opacity="0.3"/>
<path d="M305.175 465.021C300.164 465.021 295.504 463.717 291.152 461.461L246.771 435.995C240.104 432.449 243.445 431.16 245.452 430.515C254.449 427.614 256.119 426.97 265.467 421.797C266.463 421.153 267.811 421.475 268.808 422.12L302.845 441.798C304.164 442.442 305.849 442.442 306.845 441.798L439.99 367.306C441.309 366.661 441.983 365.371 441.983 363.76V215.098C441.983 213.486 441.323 212.197 439.99 211.552L306.845 137.397C305.512 136.753 303.841 136.753 302.845 137.397L169.7 211.552C168.367 212.197 167.693 213.809 167.693 215.098V363.76C167.693 365.049 168.367 366.661 169.7 367.306L206.067 387.628C225.759 397.299 238.097 386.017 238.097 374.734V228.007C238.097 226.073 239.767 224.139 242.111 224.139H259.123C261.13 224.139 263.123 225.75 263.123 228.007V374.72C263.123 400.2 248.778 415.028 223.752 415.028C216.074 415.028 210.067 415.028 193.056 406.969L158.022 387.628C153.801 385.307 150.275 381.901 147.81 377.761C145.345 373.622 144.03 368.9 144 364.082V215.42C144 205.75 149.333 196.724 158.022 191.889L291.167 117.382C295.502 115.159 300.303 114 305.175 114C310.046 114 314.848 115.159 319.182 117.382L452.342 191.874C461.016 196.71 466.349 205.735 466.349 215.406V364.067C466.349 373.738 461.016 382.764 452.342 387.614L319.182 462.091C314.761 464.007 309.993 464.995 305.175 464.992V465.021ZM346.216 362.793C287.826 362.793 275.812 337.005 275.812 315.07C275.812 313.136 277.482 311.202 279.812 311.202H297.16C299.167 311.202 300.823 312.492 300.823 314.426C303.504 331.51 311.182 339.891 346.553 339.891C374.582 339.891 386.597 333.767 386.597 319.261C386.597 310.88 383.256 304.755 339.549 300.565C303.167 297.004 280.486 289.282 280.486 261.223C280.486 235.098 303.167 219.611 341.219 219.611C383.93 219.611 404.956 233.809 407.623 264.769C407.593 265.817 407.24 266.831 406.612 267.67C405.953 268.315 404.956 268.96 403.945 268.96H386.597C385.754 268.939 384.941 268.645 384.28 268.122C383.619 267.599 383.147 266.874 382.934 266.059C378.919 248.329 368.575 242.512 341.219 242.512C310.508 242.512 306.845 252.828 306.845 260.564C306.845 269.927 311.182 272.828 352.56 277.986C393.601 283.143 412.956 290.557 412.956 318.279C412.619 346.675 388.604 362.793 346.216 362.793V362.793Z" fill="url(#paint0_radial_1_169)"/>
<defs>
<radialGradient id="paint0_radial_1_169" cx="0" cy="0" r="1" gradientUnits="userSpaceOnUse" gradientTransform="translate(357.085 228.718) rotate(138.122) scale(228.274 209.628)">
<stop stop-color="#AD91FF"/>
<stop offset="1" stop-color="#AD91FF" stop-opacity="0"/>
</radialGradient>
</defs>
</svg>
