<svg width="210" height="210" viewBox="0 0 210 210" fill="none" xmlns="http://www.w3.org/2000/svg">
<g clip-path="url(#clip0_1_4)">
<path d="M105 209.615C102.007 209.615 99.225 208.836 96.6263 207.489L70.1225 192.281C66.1413 190.164 68.1362 189.394 69.335 189.009C74.7075 187.276 75.705 186.891 81.2875 183.803C81.8825 183.418 82.6875 183.61 83.2825 183.995L103.609 195.746C104.396 196.131 105.403 196.131 105.998 195.746L185.509 151.261C186.296 150.876 186.699 150.106 186.699 149.144V60.3663C186.699 59.4038 186.305 58.6338 185.509 58.2488L105.998 13.965C105.201 13.58 104.204 13.58 103.609 13.965L24.0975 58.2488C23.3012 58.6338 22.8988 59.5963 22.8988 60.3663V149.144C22.8988 149.914 23.3012 150.876 24.0975 151.261L45.815 163.398C57.575 169.173 64.9425 162.435 64.9425 155.698V68.075C64.9425 66.92 65.94 65.765 67.34 65.765H77.4988C78.6975 65.765 79.8875 66.7275 79.8875 68.075V155.689C79.8875 170.905 71.3212 179.76 56.3762 179.76C51.7912 179.76 48.2038 179.76 38.045 174.947L17.1237 163.398C14.6027 162.011 12.4975 159.977 11.0254 157.505C9.55334 155.033 8.76783 152.213 8.75 149.336V60.5588C8.75 54.7838 11.935 49.3938 17.1237 46.5063L96.635 2.0125C99.2236 0.685007 102.091 -0.00735474 105 -0.00735474C107.909 -0.00735474 110.776 0.685007 113.365 2.0125L192.885 46.4975C198.065 49.385 201.25 54.775 201.25 60.55V149.327C201.25 155.103 198.065 160.493 192.885 163.389L113.365 207.865C110.725 209.01 107.878 209.599 105 209.598V209.615ZM129.509 148.566C94.64 148.566 87.465 133.166 87.465 120.068C87.465 118.913 88.4625 117.758 89.8538 117.758H100.214C101.412 117.758 102.401 118.528 102.401 119.683C104.003 129.885 108.588 134.89 129.71 134.89C146.449 134.89 153.624 131.233 153.624 122.57C153.624 117.565 151.629 113.908 125.527 111.405C103.801 109.279 90.2562 104.668 90.2562 87.9113C90.2562 72.31 103.801 63.0613 126.525 63.0613C152.031 63.0613 164.588 71.54 166.18 90.0287C166.162 90.6547 165.951 91.2598 165.576 91.7613C165.183 92.1463 164.587 92.5312 163.984 92.5312H153.624C153.12 92.5191 152.635 92.3434 152.24 92.0309C151.846 91.7183 151.563 91.2859 151.436 90.7988C149.039 80.2113 142.861 76.7375 126.525 76.7375C108.185 76.7375 105.998 82.8975 105.998 87.5175C105.998 93.1088 108.588 94.8413 133.298 97.9213C157.806 101.001 169.365 105.429 169.365 121.984C169.164 138.941 154.822 148.566 129.509 148.566Z" fill="#E5E5E5" fill-opacity="0.3"/>
<path d="M105 209.615C102.007 209.615 99.225 208.836 96.6263 207.489L70.1225 192.281C66.1413 190.164 68.1362 189.394 69.335 189.009C74.7075 187.276 75.705 186.891 81.2875 183.803C81.8825 183.418 82.6875 183.61 83.2825 183.995L103.609 195.746C104.396 196.131 105.403 196.131 105.998 195.746L185.509 151.261C186.296 150.876 186.699 150.106 186.699 149.144V60.3663C186.699 59.4038 186.305 58.6338 185.509 58.2488L105.998 13.965C105.201 13.58 104.204 13.58 103.609 13.965L24.0975 58.2488C23.3012 58.6338 22.8988 59.5963 22.8988 60.3663V149.144C22.8988 149.914 23.3012 150.876 24.0975 151.261L45.815 163.398C57.575 169.173 64.9425 162.435 64.9425 155.698V68.075C64.9425 66.92 65.94 65.765 67.34 65.765H77.4988C78.6975 65.765 79.8875 66.7275 79.8875 68.075V155.689C79.8875 170.905 71.3212 179.76 56.3762 179.76C51.7912 179.76 48.2038 179.76 38.045 174.947L17.1237 163.398C14.6027 162.011 12.4975 159.977 11.0254 157.505C9.55334 155.033 8.76783 152.213 8.75 149.336V60.5588C8.75 54.7838 11.935 49.3938 17.1237 46.5063L96.635 2.0125C99.2236 0.685007 102.091 -0.00735474 105 -0.00735474C107.909 -0.00735474 110.776 0.685007 113.365 2.0125L192.885 46.4975C198.065 49.385 201.25 54.775 201.25 60.55V149.327C201.25 155.103 198.065 160.493 192.885 163.389L113.365 207.865C110.725 209.01 107.878 209.599 105 209.598V209.615ZM129.509 148.566C94.64 148.566 87.465 133.166 87.465 120.068C87.465 118.913 88.4625 117.758 89.8538 117.758H100.214C101.412 117.758 102.401 118.528 102.401 119.683C104.003 129.885 108.588 134.89 129.71 134.89C146.449 134.89 153.624 131.233 153.624 122.57C153.624 117.565 151.629 113.908 125.527 111.405C103.801 109.279 90.2562 104.668 90.2562 87.9113C90.2562 72.31 103.801 63.0613 126.525 63.0613C152.031 63.0613 164.588 71.54 166.18 90.0287C166.162 90.6547 165.951 91.2598 165.576 91.7613C165.183 92.1463 164.587 92.5312 163.984 92.5312H153.624C153.12 92.5191 152.635 92.3434 152.24 92.0309C151.846 91.7183 151.563 91.2859 151.436 90.7988C149.039 80.2113 142.861 76.7375 126.525 76.7375C108.185 76.7375 105.998 82.8975 105.998 87.5175C105.998 93.1088 108.588 94.8413 133.298 97.9213C157.806 101.001 169.365 105.429 169.365 121.984C169.164 138.941 154.822 148.566 129.509 148.566Z" fill="url(#paint0_radial_1_4)"/>
</g>
<defs>
<radialGradient id="paint0_radial_1_4" cx="0" cy="0" r="1" gradientUnits="userSpaceOnUse" gradientTransform="translate(136 68.5) rotate(138.122) scale(136.32 125.185)">
<stop stop-color="#AD91FF"/>
<stop offset="1" stop-color="#AD91FF" stop-opacity="0"/>
</radialGradient>
<clipPath id="clip0_1_4">
<rect width="210" height="210" fill="white"/>
</clipPath>
</defs>
</svg>
