<svg width="194" height="210" viewBox="0 0 194 210" fill="none" xmlns="http://www.w3.org/2000/svg">
<path d="M97 209.615C94.0075 209.615 91.225 208.836 88.6263 207.489L62.1225 192.281C58.1412 190.164 60.1362 189.394 61.335 189.009C66.7075 187.276 67.705 186.891 73.2875 183.803C73.8825 183.418 74.6875 183.61 75.2825 183.995L95.6087 195.746C96.3962 196.131 97.4025 196.131 97.9975 195.746L177.509 151.261C178.296 150.876 178.699 150.106 178.699 149.144V60.3663C178.699 59.4038 178.305 58.6338 177.509 58.2488L97.9975 13.965C97.2013 13.58 96.2037 13.58 95.6087 13.965L16.0975 58.2488C15.3012 58.6338 14.8988 59.5963 14.8988 60.3663V149.144C14.8988 149.914 15.3012 150.876 16.0975 151.261L37.815 163.398C49.575 169.173 56.9425 162.435 56.9425 155.698V68.075C56.9425 66.92 57.94 65.765 59.34 65.765H69.4988C70.6975 65.765 71.8875 66.7275 71.8875 68.075V155.689C71.8875 170.905 63.3212 179.76 48.3762 179.76C43.7912 179.76 40.2038 179.76 30.045 174.948L9.12375 163.398C6.60273 162.011 4.49748 159.977 3.02541 157.505C1.55334 155.033 0.767831 152.213 0.75 149.336V60.5588C0.75 54.7838 3.935 49.3938 9.12375 46.5063L88.635 2.0125C91.2236 0.685007 94.0909 -0.00735474 97 -0.00735474C99.9091 -0.00735474 102.776 0.685007 105.365 2.0125L184.885 46.4975C190.065 49.385 193.25 54.775 193.25 60.55V149.328C193.25 155.103 190.065 160.493 184.885 163.389L105.365 207.865C102.725 209.01 99.8776 209.599 97 209.598V209.615ZM121.509 148.566C86.64 148.566 79.465 133.166 79.465 120.068C79.465 118.913 80.4625 117.758 81.8538 117.758H92.2138C93.4125 117.758 94.4013 118.528 94.4013 119.683C96.0025 129.885 100.588 134.89 121.71 134.89C138.449 134.89 145.624 131.233 145.624 122.57C145.624 117.565 143.629 113.908 117.527 111.405C95.8012 109.279 82.2562 104.668 82.2562 87.9113C82.2562 72.31 95.8013 63.0613 118.525 63.0613C144.031 63.0613 156.588 71.54 158.18 90.0288C158.162 90.6547 157.951 91.2598 157.576 91.7613C157.183 92.1463 156.587 92.5313 155.984 92.5313H145.624C145.12 92.5191 144.635 92.3434 144.24 92.0309C143.846 91.7183 143.563 91.2859 143.436 90.7988C141.039 80.2113 134.861 76.7375 118.525 76.7375C100.185 76.7375 97.9975 82.8975 97.9975 87.5175C97.9975 93.1088 100.588 94.8413 125.298 97.9213C149.806 101.001 161.365 105.429 161.365 121.984C161.164 138.941 146.822 148.566 121.509 148.566V148.566Z" fill="#E5E5E5" fill-opacity="0.3"/>
<path d="M97 209.615C94.0075 209.615 91.225 208.836 88.6263 207.489L62.1225 192.281C58.1412 190.164 60.1362 189.394 61.335 189.009C66.7075 187.276 67.705 186.891 73.2875 183.803C73.8825 183.418 74.6875 183.61 75.2825 183.995L95.6087 195.746C96.3962 196.131 97.4025 196.131 97.9975 195.746L177.509 151.261C178.296 150.876 178.699 150.106 178.699 149.144V60.3663C178.699 59.4038 178.305 58.6338 177.509 58.2488L97.9975 13.965C97.2013 13.58 96.2037 13.58 95.6087 13.965L16.0975 58.2488C15.3012 58.6338 14.8988 59.5963 14.8988 60.3663V149.144C14.8988 149.914 15.3012 150.876 16.0975 151.261L37.815 163.398C49.575 169.173 56.9425 162.435 56.9425 155.698V68.075C56.9425 66.92 57.94 65.765 59.34 65.765H69.4988C70.6975 65.765 71.8875 66.7275 71.8875 68.075V155.689C71.8875 170.905 63.3212 179.76 48.3762 179.76C43.7912 179.76 40.2038 179.76 30.045 174.948L9.12375 163.398C6.60273 162.011 4.49748 159.977 3.02541 157.505C1.55334 155.033 0.767831 152.213 0.75 149.336V60.5588C0.75 54.7838 3.935 49.3938 9.12375 46.5063L88.635 2.0125C91.2236 0.685007 94.0909 -0.00735474 97 -0.00735474C99.9091 -0.00735474 102.776 0.685007 105.365 2.0125L184.885 46.4975C190.065 49.385 193.25 54.775 193.25 60.55V149.328C193.25 155.103 190.065 160.493 184.885 163.389L105.365 207.865C102.725 209.01 99.8776 209.599 97 209.598V209.615ZM121.509 148.566C86.64 148.566 79.465 133.166 79.465 120.068C79.465 118.913 80.4625 117.758 81.8538 117.758H92.2138C93.4125 117.758 94.4013 118.528 94.4013 119.683C96.0025 129.885 100.588 134.89 121.71 134.89C138.449 134.89 145.624 131.233 145.624 122.57C145.624 117.565 143.629 113.908 117.527 111.405C95.8012 109.279 82.2562 104.668 82.2562 87.9113C82.2562 72.31 95.8013 63.0613 118.525 63.0613C144.031 63.0613 156.588 71.54 158.18 90.0288C158.162 90.6547 157.951 91.2598 157.576 91.7613C157.183 92.1463 156.587 92.5313 155.984 92.5313H145.624C145.12 92.5191 144.635 92.3434 144.24 92.0309C143.846 91.7183 143.563 91.2859 143.436 90.7988C141.039 80.2113 134.861 76.7375 118.525 76.7375C100.185 76.7375 97.9975 82.8975 97.9975 87.5175C97.9975 93.1088 100.588 94.8413 125.298 97.9213C149.806 101.001 161.365 105.429 161.365 121.984C161.164 138.941 146.822 148.566 121.509 148.566V148.566Z" fill="url(#paint0_radial_1_6)"/>
<defs>
<radialGradient id="paint0_radial_1_6" cx="0" cy="0" r="1" gradientUnits="userSpaceOnUse" gradientTransform="translate(128 68.5) rotate(138.122) scale(136.32 125.185)">
<stop stop-color="#AD91FF"/>
<stop offset="1" stop-color="#AD91FF" stop-opacity="0"/>
</radialGradient>
</defs>
</svg>
